<mxfile host="app.diagrams.net" modified="2023-09-23T03:42:07.170Z" agent="Mozilla/5.0 (Macintosh; Intel Mac OS X 10_15_7) AppleWebKit/537.36 (KHTML, like Gecko) Chrome/116.0.0.0 Safari/537.36" version="21.8.1" etag="NBAA-j3T0x_NGzZK2FMu" type="github">
  <diagram name="第 1 页" id="QoWlPOXiwu-JWedbGoKN">
    <mxGraphModel>
      <root>
        <mxCell id="0" />
        <mxCell id="1" parent="0" />
      </root>
    </mxGraphModel>
  </diagram>
</mxfile>
